<?xml version="1.0" encoding="utf-8"?>
<!-- Generator: Adobe Illustrator 26.3.1, SVG Export Plug-In . SVG Version: 6.00 Build 0)  -->
<svg version="1.1" id="Layer_1" xmlns="http://www.w3.org/2000/svg" xmlns:xlink="http://www.w3.org/1999/xlink" x="0px" y="0px"
	 viewBox="0 0 99.5 99.2" style="enable-background:new 0 0 99.5 99.2;" xml:space="preserve">
<style type="text/css">
	.st0{fill:none;stroke:#2F3C7F;stroke-width:0.25;stroke-miterlimit:10;}
	.st1{enable-background:new    ;}
	.st2{fill:#2F3C7F;}
</style>
<g id="Layer_2_00000178185682218930174760000012451540123306015368_">
	<g id="Layer_2-2">
		<ellipse class="st0" cx="49.8" cy="49.6" rx="49.6" ry="49.5"/>
		<g class="st1">
			<path class="st2" d="M22.6,39.8l1.8-1.2v-20l-1.6-1.1H32L30,22.9v-4.8h-3.6l-0.7,10.2H28l1.5-3v6.8L27.9,29h-2.3l-0.7,10.8H22.6z
				"/>
		</g>
		<g class="st1">
			<path class="st2" d="M31.9,39.8l1.1-0.7v-8.2l-1.1-0.7h1.6l0.1,2.4c0.1-0.9,0.3-1.6,0.5-2c0.2-0.4,0.5-0.6,0.9-0.6
				c0.3,0,0.5,0.1,0.7,0.3c0.2,0.2,0.3,0.5,0.5,1l0.4-1.2v4.6c-0.2-1.3-0.5-2.3-0.7-3s-0.6-1-0.9-1c-0.4,0-0.7,0.4-0.9,1.1
				s-0.4,1.8-0.4,3c0,0.8,0,1.6,0.1,2.4c0.1,0.8,0.1,1.6,0.3,2.4H31.9z"/>
		</g>
		<g class="st1">
			<path class="st2" d="M39.6,30.1c0.6,0,1.1,0.5,1.5,1.4s0.6,2.1,0.6,3.5c0,1.5-0.2,2.7-0.6,3.6c-0.4,0.9-0.9,1.4-1.6,1.4
				c-0.6,0-1.1-0.5-1.6-1.4s-0.6-2.1-0.6-3.6c0-1.4,0.2-2.6,0.6-3.5C38.5,30.6,39,30.1,39.6,30.1z M39.6,30.5
				c-0.4,0-0.7,0.4-0.9,1.1s-0.3,1.8-0.3,3.2c0,1.6,0.1,2.7,0.3,3.5s0.5,1.2,0.9,1.2c0.4,0,0.7-0.4,0.9-1.2s0.3-2,0.3-3.5
				c0-1.4-0.1-2.5-0.3-3.2S40,30.5,39.6,30.5z"/>
			<path class="st2" d="M42.3,39.8l1.1-0.7v-8.2l-1.1-0.7h1.6l0.1,2.5c0.2-0.8,0.4-1.5,0.7-1.9s0.7-0.7,1.1-0.7
				c0.6,0,1.1,0.4,1.6,1.3c0.4,0.8,0.6,1.9,0.6,3.2c0,0.9-0.1,1.7-0.4,2.5s-0.6,1.4-1.2,2.1l1.5,0.7h-2.4c0.5-0.7,0.9-1.4,1.2-2.3
				s0.4-1.9,0.4-3.1c0-1.3-0.1-2.3-0.3-2.9s-0.5-1-1-1c-0.4,0-0.8,0.5-1.2,1.4s-0.5,2-0.5,3.3c0,0.7,0,1.5,0.1,2.2s0.2,1.5,0.3,2.3
				H42.3z"/>
			<path class="st2" d="M53.8,36.2v3.4l-0.3-1.2c-0.2,0.5-0.5,0.9-0.7,1.2c-0.3,0.2-0.6,0.4-0.9,0.4c-0.6,0-1.1-0.3-1.4-0.8
				s-0.4-1.3-0.4-2.4c0-0.7,0-1.4,0.1-2.2s0.1-1.5,0.3-2.4h-0.8l-0.7,1.7v-3.6l0.7,1.6h0.8c0.2-1.1,0.4-2.1,0.5-2.9
				c0.2-0.8,0.3-1.4,0.4-1.9l-1.2-0.7h3.1l-1.4,0.7c-0.2,1.1-0.3,2.1-0.4,2.8s-0.2,1.4-0.2,1.9h1.4l0.7-1.6v3.6l-0.7-1.6h-1.5
				c-0.1,0.6-0.1,1.2-0.1,1.9c0,0.7,0,1.4,0,2.2c0,1.1,0.1,2,0.2,2.4s0.4,0.7,0.8,0.7c0.4,0,0.7-0.3,1-0.8S53.6,37.4,53.8,36.2z"/>
			<path class="st2" d="M58.1,33.9l-0.1,1l-3.1-0.2l-0.3-0.5L58.1,33.9z"/>
			<path class="st2" d="M63.7,34.9h-3.5c0,1.7,0.1,2.9,0.3,3.6s0.6,1,1.1,1c0.3,0,0.6-0.3,0.9-0.8c0.3-0.5,0.5-1.4,0.8-2.6v3.7
				l-0.3-1.3c-0.2,0.5-0.4,0.9-0.7,1.2c-0.2,0.2-0.5,0.4-0.8,0.4c-0.7,0-1.3-0.4-1.7-1.3s-0.6-2-0.6-3.5c0-1.5,0.2-2.7,0.7-3.6
				s1-1.4,1.6-1.4c0.6,0,1.1,0.4,1.5,1.2c0.4,0.8,0.7,1.8,0.7,2.9V34.9z M62.7,34.5v-0.6c0-1-0.1-1.8-0.3-2.4s-0.5-0.9-0.9-0.9
				c-0.4,0-0.7,0.3-0.9,1c-0.2,0.7-0.4,1.6-0.4,3H62.7z"/>
			<path class="st2" d="M64,39.8l1.1-0.7v-8.2L64,30.2h1.6l0.1,2.5c0.2-0.8,0.4-1.5,0.7-1.9s0.7-0.7,1.1-0.7c0.6,0,1.1,0.4,1.6,1.3
				c0.4,0.8,0.6,1.9,0.6,3.2c0,0.9-0.1,1.7-0.4,2.5s-0.6,1.4-1.2,2.1l1.5,0.7h-2.4c0.5-0.7,0.9-1.4,1.2-2.3s0.4-1.9,0.4-3.1
				c0-1.3-0.1-2.3-0.3-2.9s-0.5-1-1-1c-0.4,0-0.8,0.5-1.2,1.4s-0.5,2-0.5,3.3c0,0.7,0,1.5,0.1,2.2s0.2,1.5,0.3,2.3H64z"/>
			<path class="st2" d="M76.6,39.8H75l-0.1-2.7c-0.2,1-0.4,1.7-0.8,2.2S73.5,40,73.1,40c-0.7,0-1.2-0.4-1.6-1.3s-0.6-2.1-0.6-3.6
				c0-1.5,0.2-2.6,0.7-3.6c0.4-0.9,1-1.4,1.6-1.4c0.3,0,0.6,0.2,0.9,0.5s0.5,0.8,0.7,1.4l-0.2-5.6h2.2l-1.2,0.7v12L76.6,39.8z
				 M74.8,34.8c0-1.2-0.2-2.2-0.5-3s-0.7-1.2-1.1-1.2c-0.4,0-0.8,0.4-1,1.1c-0.2,0.8-0.3,1.9-0.3,3.3c0,1.7,0.1,2.9,0.3,3.6
				s0.5,1,1,1c0.5,0,0.9-0.4,1.2-1.3S74.8,36.2,74.8,34.8z"/>
		</g>
		<g class="st1">
			<path class="st2" d="M16.5,75.8l1.8-1.2v-20l-1.6-1.1h3.1c1.8,0,3.2,0.8,4.2,2.5s1.4,4.1,1.4,7.3c0,2.2-0.3,4.2-0.8,6.1
				c-0.6,1.9-1.3,3.4-2.3,4.6c-0.5,0.6-1,1-1.6,1.4s-1.2,0.5-1.9,0.5H16.5z M18.8,75.2c1.8,0,3.1-1.1,3.9-3.2S24,66.4,24,61.7
				c0-2.9-0.3-4.9-0.8-6c-0.6-1.1-1.5-1.6-2.9-1.6L18.8,75.2z"/>
		</g>
		<g class="st1">
			<path class="st2" d="M31.3,70.9h-3.5c0,1.7,0.1,2.9,0.3,3.6s0.6,1,1.1,1c0.3,0,0.6-0.3,0.9-0.8c0.3-0.5,0.5-1.4,0.8-2.6v3.7
				l-0.3-1.3c-0.2,0.5-0.4,0.9-0.7,1.2c-0.2,0.2-0.5,0.4-0.8,0.4c-0.7,0-1.3-0.4-1.7-1.3s-0.6-2-0.6-3.5c0-1.5,0.2-2.7,0.7-3.6
				s1-1.4,1.6-1.4c0.6,0,1.1,0.4,1.5,1.2c0.4,0.8,0.7,1.8,0.7,2.9V70.9z M30.3,70.5v-0.6c0-1-0.1-1.8-0.3-2.4s-0.5-0.9-0.9-0.9
				c-0.4,0-0.7,0.3-0.9,1c-0.2,0.7-0.4,1.6-0.4,3H30.3z"/>
		</g>
		<g class="st1">
			<path class="st2" d="M37.2,66.6l-1.1,0.7l-1.5,8.5H33l1.2-0.7L32.4,67l-1.2-0.7h2.2l1,8.6l1.3-7.5l-1.2-0.7H37.2z"/>
		</g>
		<g class="st1">
			<path class="st2" d="M41.8,70.9h-3.5c0,1.7,0.1,2.9,0.3,3.6s0.6,1,1.1,1c0.3,0,0.6-0.3,0.9-0.8c0.3-0.5,0.5-1.4,0.8-2.6v3.7
				l-0.3-1.3c-0.2,0.5-0.4,0.9-0.7,1.2C40.3,75.8,40,76,39.7,76c-0.7,0-1.3-0.4-1.7-1.3s-0.6-2-0.6-3.5c0-1.5,0.2-2.7,0.7-3.6
				s1-1.4,1.6-1.4c0.6,0,1.1,0.4,1.5,1.2c0.4,0.8,0.7,1.8,0.7,2.9V70.9z M40.8,70.5v-0.6c0-1-0.1-1.8-0.3-2.4s-0.5-0.9-0.9-0.9
				c-0.4,0-0.7,0.3-0.9,1c-0.2,0.7-0.4,1.6-0.4,3H40.8z"/>
			<path class="st2" d="M42.3,75.8l1.1-0.7V63.2l-1.3-0.8h2.2l-0.5,12.7l1.1,0.7H42.3z"/>
			<path class="st2" d="M48,66.1c0.6,0,1.1,0.5,1.5,1.4s0.6,2.1,0.6,3.5c0,1.5-0.2,2.7-0.6,3.6C49.1,75.5,48.6,76,48,76
				c-0.6,0-1.1-0.5-1.6-1.4s-0.6-2.1-0.6-3.6c0-1.4,0.2-2.6,0.6-3.5C46.9,66.6,47.4,66.1,48,66.1z M48,66.5c-0.4,0-0.7,0.4-0.9,1.1
				s-0.3,1.8-0.3,3.2c0,1.6,0.1,2.7,0.3,3.5s0.5,1.2,0.9,1.2c0.4,0,0.7-0.4,0.9-1.2s0.3-2,0.3-3.5c0-1.4-0.1-2.5-0.3-3.2
				S48.4,66.5,48,66.5z"/>
			<path class="st2" d="M50.7,79.6l1.1-0.7V67l-1.2-0.7h1.6l0.1,2.7c0.2-0.9,0.4-1.7,0.7-2.1s0.7-0.7,1.1-0.7c0.7,0,1.2,0.4,1.6,1.3
				s0.6,2.1,0.6,3.6c0,1.5-0.2,2.7-0.7,3.6s-1,1.4-1.7,1.4c-0.3,0-0.6-0.2-0.8-0.5s-0.5-0.8-0.7-1.4l0.3,5.6H50.7z M54.1,66.5
				c-0.5,0-0.8,0.4-1.2,1.3c-0.3,0.9-0.5,2-0.5,3.3c0,1.2,0.2,2.3,0.5,3.1s0.7,1.3,1.1,1.3c0.5,0,0.8-0.4,1-1.2s0.3-2,0.3-3.6
				c0-1.5-0.1-2.6-0.3-3.2S54.6,66.5,54.1,66.5z"/>
			<path class="st2" d="M57,75.8l1.1-0.7v-8.2L57,66.2h1.6l0.1,2.5c0.2-0.8,0.4-1.5,0.7-1.9s0.6-0.7,1-0.7c0.3,0,0.6,0.1,0.8,0.2
				s0.5,0.4,0.7,0.8c0.2-0.4,0.4-0.6,0.6-0.8c0.2-0.2,0.5-0.2,0.7-0.2c0.6,0,1.1,0.4,1.6,1.3s0.6,1.9,0.6,3.2c0,0.9-0.1,1.7-0.4,2.5
				s-0.6,1.4-1.2,2.1l1.5,0.7H63c0.5-0.7,0.9-1.4,1.2-2.3s0.4-1.8,0.4-3c0-1.4-0.1-2.4-0.3-3.1s-0.5-1-1-1c-0.2,0-0.4,0.1-0.5,0.2
				s-0.3,0.4-0.5,0.8c0.1,0.3,0.2,0.5,0.2,0.8c0,0.3,0.1,0.6,0.1,0.9c0,0.8-0.1,1.6-0.3,2.5s-0.5,1.8-0.9,2.8l1.1,0.7h-2.6l1.1-0.7
				c0.3-0.8,0.4-1.6,0.6-2.4c0.1-0.8,0.2-1.5,0.2-2.1c0-1-0.1-1.8-0.3-2.4c-0.2-0.6-0.5-0.9-0.9-0.9c-0.4,0-0.7,0.5-1.1,1.4
				s-0.5,2-0.5,3.2c0,0.7,0,1.4,0.1,2.2s0.2,1.6,0.3,2.5H57z"/>
			<path class="st2" d="M71,70.9h-3.5c0,1.7,0.1,2.9,0.3,3.6s0.6,1,1.1,1c0.3,0,0.6-0.3,0.9-0.8c0.3-0.5,0.5-1.4,0.8-2.6v3.7
				l-0.3-1.3c-0.2,0.5-0.4,0.9-0.7,1.2c-0.2,0.2-0.5,0.4-0.8,0.4c-0.7,0-1.3-0.4-1.7-1.3s-0.6-2-0.6-3.5c0-1.5,0.2-2.7,0.7-3.6
				s1-1.4,1.6-1.4c0.6,0,1.1,0.4,1.5,1.2c0.4,0.8,0.7,1.8,0.7,2.9V70.9z M70,70.5v-0.6c0-1-0.1-1.8-0.3-2.4s-0.5-0.9-0.9-0.9
				c-0.4,0-0.7,0.3-0.9,1c-0.2,0.7-0.4,1.6-0.4,3H70z"/>
			<path class="st2" d="M71.3,75.8l1.1-0.7v-8.2l-1.1-0.7h1.6l0.1,2.5c0.2-0.8,0.4-1.5,0.7-1.9s0.7-0.7,1.1-0.7
				c0.6,0,1.1,0.4,1.6,1.3c0.4,0.8,0.6,1.9,0.6,3.2c0,0.9-0.1,1.7-0.4,2.5s-0.6,1.4-1.2,2.1l1.5,0.7h-2.4c0.5-0.7,0.9-1.4,1.2-2.3
				s0.4-1.9,0.4-3.1c0-1.3-0.1-2.3-0.3-2.9s-0.5-1-1-1c-0.4,0-0.8,0.5-1.2,1.4s-0.5,2-0.5,3.3c0,0.7,0,1.5,0.1,2.2s0.2,1.5,0.3,2.3
				H71.3z"/>
			<path class="st2" d="M82.8,72.2v3.4l-0.3-1.2c-0.2,0.5-0.5,0.9-0.7,1.2c-0.3,0.2-0.6,0.4-0.9,0.4c-0.6,0-1.1-0.3-1.4-0.8
				s-0.4-1.3-0.4-2.4c0-0.7,0-1.4,0.1-2.2s0.1-1.5,0.3-2.4h-0.8L78,69.9v-3.6l0.7,1.6h0.8c0.2-1.1,0.4-2.1,0.5-2.9
				c0.2-0.8,0.3-1.4,0.4-1.9l-1.2-0.7h3.1l-1.4,0.7c-0.2,1.1-0.3,2.1-0.4,2.8s-0.2,1.4-0.2,1.9h1.4l0.7-1.6v3.6l-0.7-1.6h-1.5
				c-0.1,0.6-0.1,1.2-0.1,1.9c0,0.7,0,1.4,0,2.2c0,1.1,0.1,2,0.2,2.4s0.4,0.7,0.8,0.7c0.4,0,0.7-0.3,1-0.8S82.6,73.4,82.8,72.2z"/>
		</g>
	</g>
</g>
</svg>
