<?xml version="1.0" encoding="utf-8"?>
<!-- Generator: Adobe Illustrator 26.3.1, SVG Export Plug-In . SVG Version: 6.00 Build 0)  -->
<svg version="1.1" id="Layer_1" xmlns="http://www.w3.org/2000/svg" xmlns:xlink="http://www.w3.org/1999/xlink" x="0px" y="0px"
	 viewBox="0 0 724 580" style="enable-background:new 0 0 724 580;" xml:space="preserve">
<style type="text/css">
	.st0{fill:#D95585;}
	.st1{font-family:'Arial-BoldMT';}
	.st2{font-size:35.6497px;}
	.st3{fill:#2C8993;}
	.st4{fill:#402CBF;}
	.st5{fill:#BF36A8;}
	.st6{display:none;fill:#3ED7F2;enable-background:new    ;}
</style>
<image style="display:none;overflow:visible;" width="3450" height="1940" xlink:href="../old/cherylvelez.com_PROD_May_13_Baclup/images/projects-bg.jpg"  transform="matrix(0.3088 0 0 0.3088 -194.8394 -8.7915)">
</image>
<text transform="matrix(0.9627 0 0 1 304.5454 355.6309)" class="st0 st1 st2">animation</text>
<text transform="matrix(0.9627 0 0 1 457.7793 68.6523)" class="st3 st1 st2">mobile first</text>
<text transform="matrix(0.9627 0 0 1 51.665 139.9863)" class="st3 st1 st2">front end</text>
<text transform="matrix(0.9627 0 0 1 399.8706 443.6797)" class="st4 st1 st2">reusable code</text>
<text transform="matrix(0.9627 0 0 1 139.8804 200.7378)" class="st0 st1 st2">user experience</text>
<text transform="matrix(0.9627 0 0 1 567.854 375.0684)" class="st5 st1 st2">React</text>
<text transform="matrix(0.9627 0 0 1 282.4067 272.2959)" class="st0 st1 st2">APIs</text>
<text transform="matrix(0.9627 0 0 1 502.4307 298.2842)" class="st5 st1 st2">JavaScript</text>
<text transform="matrix(0.9627 0 0 1 484.3052 215.7397)" class="st3 st1 st2">scalability</text>
<text transform="matrix(0.9627 0 0 1 52.0767 268.9526)" class="st4 st1 st2">CSS</text>
<text transform="matrix(0.9627 0 0 1 327.5327 127.0659)" class="st5 st1 st2">optimize</text>
<text transform="matrix(0.9627 0 0 1 65.3135 336.3389)" class="st0 st1 st2">developer</text>
<text transform="matrix(0.9627 0 0 1 141.4585 56.4727)" class="st4 st1 st2">jQuery</text>
<text transform="matrix(0.9627 0 0 1 53.6895 455.3325)" class="st4 st1 st2">mobile</text>
<text transform="matrix(0.9627 0 0 1 181.6992 415.2529)" class="st0 st1 st2">HTML</text>
<text transform="matrix(0.9627 0 0 1 174.5234 313.9229)" class="st6 st1 st2">sc</text>
</svg>
