<?xml version="1.0" encoding="utf-8"?>
<!-- Generator: Adobe Illustrator 26.3.1, SVG Export Plug-In . SVG Version: 6.00 Build 0)  -->
<svg version="1.1" id="Layer_1" xmlns="http://www.w3.org/2000/svg" xmlns:xlink="http://www.w3.org/1999/xlink" x="0px" y="0px"
	 viewBox="0 0 101.4 107.4" style="enable-background:new 0 0 101.4 107.4;" xml:space="preserve">
<style type="text/css">
	.st0{opacity:0.75;}
	.st1{fill:#2F3C7E;stroke:#FFFFFF;stroke-miterlimit:10;}
	.st2{fill:#D7D7D7;stroke:#FFFFFF;stroke-miterlimit:10;}
	.st3{fill:#FFFFFF;}
</style>
<g id="a">
</g>
<g id="b">
	<g id="c">
		<g class="st0">
			<path class="st1" d="M98.6,25.7l-14,5L58,106.9H41.8l12.2-4.3L27.6,27.8l-12.7-4h27.4l14.9,73.9l22.9-66.5l-14.7-5.4H98.6z"/>
		</g>
		<path class="st2" d="M50.4,51.5h11.8c-0.7,10.1-4.1,18.2-10,24.5s-13.1,9.4-21.4,9.4S15.3,81.4,9.3,73.6c-5.9-7.8-8.8-18-8.8-30.3
			s3.2-22.4,9.7-30.6c6.5-8.1,14.1-12.2,23-12.2c4.4,0,8.3,0.8,11.5,2.4c3.3,1.6,5.9,4,7.9,7.1l6.8-7.9v26.6
			C56,19.9,52.1,13.3,47.8,9C43.4,4.8,38.5,2.6,33,2.6c-6.5,0-11.3,3.6-14.2,10.9c-3,7.2-4.4,19-4.4,35.4c0,12.2,1.3,20.9,4,26.2
			c2.6,5.3,7,7.9,13,7.9c5.6,0,10.2-2.3,13.7-6.8c3.6-4.6,5.4-10.5,5.4-17.8L50.4,51.5L50.4,51.5z"/>
		<g>
			<path class="st3" d="M52.3,37.5l-0.2,4.8c0.2-0.5,0.4-0.9,0.6-1.2s0.5-0.4,0.8-0.4c0.5,0,1,0.4,1.4,1.1c0.4,0.8,0.6,1.7,0.6,2.8
				c0,0.8-0.1,1.5-0.3,2.2s-0.6,1.3-1,1.9l1.3,0.6h-2.2c0.5-0.6,0.8-1.3,1-2s0.3-1.6,0.3-2.6c0-1.2-0.1-2.2-0.3-2.8
				c-0.2-0.6-0.5-0.9-0.9-0.9c-0.3,0-0.6,0.3-0.9,0.8c-0.3,0.5-0.5,1.2-0.5,1.9l-0.2,5.5h-1.5l1.1-0.6V38.1l-1.1-0.6L52.3,37.5
				L52.3,37.5z"/>
			<path class="st3" d="M60.3,45h-3.1c0,1.5,0.1,2.6,0.3,3.2s0.5,0.9,1,0.9c0.3,0,0.6-0.2,0.8-0.7s0.5-1.2,0.7-2.3v3.3l-0.3-1.2
				c-0.2,0.5-0.4,0.8-0.6,1s-0.4,0.3-0.7,0.3c-0.6,0-1.1-0.4-1.5-1.2c-0.4-0.8-0.6-1.8-0.6-3.1s0.2-2.4,0.6-3.2s0.9-1.3,1.4-1.3
				c0.5,0,0.9,0.4,1.3,1.1s0.6,1.6,0.6,2.6L60.3,45L60.3,45z M59.4,44.7v-0.5c0-0.9-0.1-1.6-0.3-2.2c-0.2-0.5-0.4-0.8-0.8-0.8
				c-0.4,0-0.6,0.3-0.8,0.9s-0.3,1.5-0.3,2.6C57.2,44.7,59.4,44.7,59.4,44.7z"/>
			<path class="st3" d="M60.6,49.4l1-0.6v-7.3l-1-0.6H62l0.1,2.2c0.1-0.8,0.3-1.4,0.5-1.8s0.5-0.5,0.8-0.5c0.2,0,0.5,0.1,0.6,0.3
				c0.2,0.2,0.3,0.5,0.4,0.9l0.3-1.1V45c-0.2-1.2-0.4-2.1-0.7-2.7c-0.2-0.6-0.5-0.9-0.8-0.9c-0.3,0-0.6,0.3-0.8,1s-0.3,1.6-0.3,2.7
				c0,0.7,0,1.5,0.1,2.2s0.1,1.4,0.2,2.1L60.6,49.4L60.6,49.4z"/>
			<path class="st3" d="M70.7,40.9l-1,0.6v7.2c0,1.3-0.2,2.3-0.5,3c-0.3,0.7-0.8,1-1.4,1c-0.3,0-0.6-0.1-0.8-0.2
				c-0.3-0.2-0.5-0.4-0.6-0.7l-0.4,0.9v-2.8c0.3,1,0.6,1.6,0.9,2c0.3,0.3,0.6,0.5,1,0.5c0.5,0,0.8-0.3,1-0.8s0.3-1.5,0.3-2.8v-0.9
				c-0.2,0.5-0.4,0.9-0.6,1.2s-0.5,0.4-0.8,0.4c-0.5,0-1-0.4-1.4-1.1s-0.6-1.7-0.6-2.8c0-0.8,0.1-1.6,0.3-2.2c0.2-0.7,0.6-1.3,1-1.9
				l-1.3-0.6h2.2c-0.5,0.6-0.8,1.3-1,2s-0.3,1.6-0.3,2.7c0,1.2,0.1,2.1,0.3,2.7s0.5,0.8,0.9,0.8c0.3,0,0.7-0.3,1-1s0.5-1.4,0.5-2.3
				l0.1-4.9L70.7,40.9L70.7,40.9z"/>
			<path class="st3" d="M70.8,49.4l1-0.6V38.2l-1.1-0.7h2l-0.5,11.3l1,0.6H70.8z"/>
		</g>
		<g>
			<path class="st3" d="M79.8,18.8h-3.7c0,1.8,0.1,3.1,0.4,3.8s0.6,1.1,1.2,1.1c0.4,0,0.7-0.3,1-0.9s0.6-1.5,0.8-2.8V24l-0.4-1.4
				c-0.2,0.6-0.5,1-0.7,1.2s-0.5,0.4-0.8,0.4c-0.7,0-1.3-0.5-1.8-1.4s-0.7-2.2-0.7-3.7s0.2-2.8,0.7-3.8s1-1.5,1.7-1.5
				c0.6,0,1.1,0.4,1.6,1.3s0.7,1.9,0.7,3.1L79.8,18.8L79.8,18.8z M78.8,18.5v-0.6c0-1.1-0.1-1.9-0.3-2.6s-0.5-0.9-0.9-0.9
				c-0.4,0-0.8,0.4-1,1c-0.2,0.7-0.4,1.7-0.4,3.1C76.2,18.5,78.8,18.5,78.8,18.5z"/>
			<path class="st3" d="M80.4,24l1.1-0.7V10.7l-1.3-0.8h2.4L82,23.3l1.2,0.7L80.4,24L80.4,24z"/>
			<path class="st3" d="M88.7,18.8H85c0,1.8,0.1,3.1,0.4,3.8s0.6,1.1,1.2,1.1c0.4,0,0.7-0.3,1-0.9s0.6-1.5,0.8-2.8V24l-0.4-1.4
				c-0.2,0.6-0.5,1-0.7,1.2s-0.5,0.4-0.8,0.4c-0.7,0-1.3-0.5-1.8-1.4s-0.7-2.2-0.7-3.7s0.2-2.8,0.7-3.8s1-1.5,1.7-1.5
				c0.6,0,1.1,0.4,1.6,1.3s0.7,1.9,0.7,3.1L88.7,18.8L88.7,18.8z M87.7,18.5v-0.6c0-1.1-0.1-1.9-0.3-2.6s-0.5-0.9-0.9-0.9
				c-0.4,0-0.8,0.4-1,1c-0.2,0.7-0.4,1.7-0.4,3.1C85,18.5,87.7,18.5,87.7,18.5z"/>
			<path class="st3" d="M94.4,14l-4.3,9.7h3.4l0.7-4V24h-4.7l3.5-9.7h-2.4l-0.7,4.1V14L94.4,14L94.4,14z"/>
		</g>
	</g>
</g>
</svg>
