<?xml version="1.0" encoding="UTF-8"?><svg xmlns="http://www.w3.org/2000/svg" viewBox="0 0 101.42 107.43"><defs><style>.d{fill:#2f3c7e;}.d,.e{stroke:#fff;stroke-miterlimit:10;}.f{opacity:.75;}.e{fill:#d7d7d7;}</style></defs><g id="a"/><g id="b"><g id="c"><g class="f"><path class="d" d="M98.55,25.73l-14.02,5.03-26.51,76.17h-16.19l12.17-4.27L27.61,27.75l-12.71-4.05h27.38l14.88,73.93L80.08,31.14l-14.67-5.41h33.14Z"/></g><path class="e" d="M50.36,51.46h11.84c-.72,10.06-4.07,18.23-10.05,24.5-5.98,6.27-13.09,9.4-21.35,9.4s-15.55-3.93-21.46-11.78C3.45,65.73,.5,55.62,.5,43.26S3.74,20.82,10.22,12.69C16.7,4.57,24.36,.5,33.2,.5c4.42,0,8.26,.8,11.52,2.41,3.26,1.6,5.9,3.97,7.93,7.11l6.84-7.93V28.72c-3.48-8.86-7.39-15.42-11.73-19.69-4.35-4.27-9.27-6.4-14.77-6.4-6.52,0-11.26,3.62-14.23,10.85-2.97,7.24-4.45,19.04-4.45,35.41,0,12.21,1.32,20.95,3.97,26.22,2.64,5.27,6.97,7.9,12.98,7.9,5.58,0,10.16-2.28,13.74-6.84,3.58-4.56,5.38-10.48,5.38-17.77v-6.94Z"/><g><path d="M52.34,37.49l-.24,4.82c.17-.5,.38-.89,.62-1.16s.5-.4,.78-.4c.55,0,1.01,.37,1.38,1.12,.38,.75,.56,1.69,.56,2.84,0,.81-.11,1.54-.33,2.2-.22,.66-.56,1.28-1.03,1.86l1.34,.61h-2.17c.46-.59,.8-1.26,1.02-2s.32-1.62,.32-2.62c0-1.24-.09-2.15-.28-2.75-.19-.59-.48-.89-.88-.89-.31,0-.61,.28-.91,.83-.29,.55-.45,1.19-.48,1.91l-.25,5.52h-1.46l1.06-.62v-10.64l-1.06-.62h2Z"/><path d="M60.29,44.98h-3.09c0,1.52,.1,2.59,.3,3.2,.2,.61,.54,.92,1.01,.92,.3,0,.57-.24,.82-.71s.48-1.25,.71-2.32v3.28l-.3-1.17c-.19,.47-.39,.82-.6,1.03s-.44,.32-.7,.32c-.62,0-1.12-.39-1.5-1.16-.38-.78-.57-1.82-.57-3.13s.2-2.36,.59-3.2,.86-1.27,1.41-1.27c.5,0,.94,.36,1.33,1.09s.58,1.6,.58,2.62v.52Zm-.87-.32v-.53c0-.92-.09-1.64-.28-2.18-.19-.53-.44-.8-.76-.8-.36,0-.64,.29-.84,.88s-.31,1.46-.34,2.63h2.22Z"/><path d="M60.63,49.38l.96-.62v-7.28l-.99-.59h1.41l.12,2.17c.11-.8,.27-1.39,.48-1.75s.48-.55,.82-.55c.25,0,.46,.1,.62,.29,.17,.19,.3,.49,.41,.89l.35-1.08v4.12c-.19-1.19-.41-2.08-.66-2.67-.25-.59-.52-.89-.83-.89-.33,0-.61,.34-.82,1.01-.21,.67-.32,1.57-.32,2.7,0,.73,.03,1.45,.08,2.16s.13,1.41,.24,2.1h-1.88Z"/><path d="M70.7,40.89l-1.01,.63v7.16c0,1.33-.16,2.33-.49,3-.33,.67-.81,1.01-1.45,1.01-.29,0-.57-.08-.82-.24-.26-.16-.47-.38-.63-.66l-.45,.93v-2.83c.31,.96,.6,1.62,.88,1.98,.28,.35,.62,.53,1.03,.53,.46,0,.79-.26,.98-.79s.29-1.47,.29-2.83v-.88c-.16,.51-.36,.91-.61,1.19s-.53,.42-.83,.42c-.54,0-1-.38-1.38-1.12s-.57-1.7-.57-2.84c0-.82,.11-1.56,.33-2.21,.22-.66,.56-1.28,1.03-1.86l-1.34-.6h2.17c-.47,.61-.81,1.28-1.02,2.02-.21,.74-.32,1.64-.32,2.71,0,1.23,.09,2.13,.28,2.68s.48,.83,.89,.83c.35,0,.68-.33,.99-.98s.47-1.44,.49-2.34l.09-4.92h1.48Z"/><path d="M70.8,49.38l.96-.62v-10.58l-1.12-.69h1.98l-.48,11.27,.98,.62h-2.32Z"/></g><g><path d="M79.83,18.83h-3.67c0,1.81,.12,3.07,.36,3.8,.24,.73,.64,1.09,1.2,1.09,.36,0,.68-.28,.97-.85,.29-.57,.57-1.49,.85-2.76v3.9l-.36-1.39c-.23,.56-.46,.97-.71,1.22-.25,.25-.52,.38-.83,.38-.74,0-1.33-.46-1.78-1.38-.45-.92-.67-2.16-.67-3.72s.23-2.8,.7-3.8,1.02-1.5,1.68-1.5c.59,0,1.12,.43,1.58,1.29,.46,.86,.69,1.9,.69,3.11v.61Zm-1.03-.38v-.63c0-1.09-.11-1.95-.33-2.58-.22-.63-.52-.95-.9-.95-.43,0-.76,.35-.99,1.04-.24,.7-.37,1.74-.41,3.12h2.63Z"/><path d="M80.38,24.05l1.14-.74V10.74l-1.34-.82h2.36l-.57,13.38,1.16,.74h-2.76Z"/><path d="M88.71,18.83h-3.67c0,1.81,.12,3.07,.36,3.8,.24,.73,.64,1.09,1.2,1.09,.36,0,.68-.28,.97-.85,.29-.57,.57-1.49,.85-2.76v3.9l-.36-1.39c-.23,.56-.46,.97-.71,1.22-.25,.25-.52,.38-.83,.38-.74,0-1.33-.46-1.78-1.38-.45-.92-.67-2.16-.67-3.72s.23-2.8,.7-3.8,1.02-1.5,1.68-1.5c.59,0,1.12,.43,1.58,1.29,.46,.86,.69,1.9,.69,3.11v.61Zm-1.03-.38v-.63c0-1.09-.11-1.95-.33-2.58-.22-.63-.52-.95-.9-.95-.43,0-.76,.35-.99,1.04-.24,.7-.37,1.74-.41,3.12h2.63Z"/><path d="M94.41,13.96l-4.35,9.72h3.43l.67-4.04v4.41h-4.66l3.52-9.71h-2.45l-.67,4.11v-4.48h4.51Z"/></g></g></g></svg>