<?xml version="1.0" encoding="utf-8"?>
<!-- Generator: Adobe Illustrator 26.3.1, SVG Export Plug-In . SVG Version: 6.00 Build 0)  -->
<svg version="1.1" id="Layer_1" xmlns="http://www.w3.org/2000/svg" xmlns:xlink="http://www.w3.org/1999/xlink" x="0px" y="0px"
	 viewBox="0 0 99.5 99.2" style="enable-background:new 0 0 99.5 99.2;" xml:space="preserve">
<style type="text/css">
	.st0{fill:none;stroke:#2F3C7F;stroke-width:0.25;stroke-miterlimit:10;}
	.st1{enable-background:new    ;}
	.st2{fill:#2F3C7F;}
</style>
<g id="Layer_2_00000096058275808324606950000002052303852713856909_">
	<g id="Layer_2-2">
		<ellipse class="st0" cx="49.8" cy="49.6" rx="49.6" ry="49.5"/>
		<g class="st1">
			<path class="st2" d="M43,18l-1.9,1.3l-3.6,20.4h-2.2l1.6-1.1l-3.6-20.1l-1.7-1.1h3.7l2,19.8l3.1-17.8l-2-1.5H43z"/>
		</g>
		<g class="st1">
			<path class="st2" d="M42.8,39.8l1.3-0.7l-0.3-8.2l-1.5-0.7h3.9l-1.5,0.7l-0.3,8.2l1.3,0.7H42.8z M43.1,28.7
				c0-0.2,0.1-0.3,0.3-0.4s0.5-0.2,0.9-0.2s0.6,0.1,0.9,0.2s0.4,0.2,0.4,0.4s-0.1,0.3-0.3,0.4s-0.5,0.2-0.9,0.2
				c-0.4,0-0.7-0.1-0.9-0.2C43.2,29,43.1,28.8,43.1,28.7z"/>
			<path class="st2" d="M50.7,30.1v3.6c-0.2-1.1-0.4-1.9-0.7-2.4s-0.6-0.8-1-0.8c-0.4,0-0.6,0.1-0.8,0.4S48,31.5,48,32
				c0,1,0.6,2,1.9,3C50,34.9,50,35,50,35c0.4,0.3,0.7,0.6,0.9,1c0.2,0.4,0.3,0.9,0.3,1.4c0,0.8-0.2,1.4-0.6,1.8
				c-0.4,0.4-0.9,0.7-1.5,0.7c-0.4,0-0.8-0.1-1.1-0.4s-0.6-0.8-0.9-1.4l-0.3,1.7v-4.3c0.2,1.3,0.6,2.3,0.9,3c0.4,0.7,0.8,1,1.3,1
				c0.4,0,0.7-0.2,0.8-0.5s0.3-0.8,0.3-1.6c0-0.7-0.1-1.3-0.3-1.7s-0.5-0.7-0.9-1c0,0,0,0-0.1,0c-1.3-0.9-1.9-1.8-1.9-2.8
				c0-0.5,0.2-1,0.5-1.3s0.8-0.5,1.3-0.5c0.4,0,0.6,0.1,0.9,0.3c0.2,0.2,0.4,0.5,0.7,1L50.7,30.1z"/>
			<path class="st2" d="M57.8,39.8h-1.9l0-1.8c-0.2,0.6-0.4,1.1-0.7,1.4S54.6,40,54.3,40c-0.6,0-1.1-0.4-1.6-1.3s-0.6-1.9-0.6-3.2
				c0-0.9,0.1-1.7,0.4-2.5s0.6-1.4,1.2-2.1l-1.5-0.7h2.4c-0.5,0.7-0.9,1.4-1.2,2.3c-0.2,0.9-0.4,1.9-0.4,3.2c0,1.3,0.1,2.3,0.3,2.9
				c0.2,0.6,0.5,0.9,1,0.9c0.4,0,0.8-0.4,1.1-1.1s0.5-1.6,0.6-2.6l0.1-5.5h1.7L56.7,31v8.2L57.8,39.8z"/>
			<path class="st2" d="M64.1,39.8h-2v-1.7c-0.2,0.6-0.4,1-0.7,1.4S60.9,40,60.6,40c-0.7,0-1.2-0.4-1.6-1.3s-0.6-2.1-0.6-3.6
				c0-1.5,0.2-2.7,0.7-3.6s1-1.4,1.7-1.4c0.4,0,0.7,0.2,1,0.6s0.5,1,0.7,1.8l0.2-2.2h1.6L63,30.9v8.1L64.1,39.8z M62.3,34.8
				c0-1.2-0.2-2.2-0.5-3s-0.7-1.2-1.1-1.2c-0.5,0-0.8,0.4-1,1.1s-0.3,1.9-0.3,3.5c0,1.6,0.1,2.7,0.3,3.4s0.5,1,1,1s0.8-0.4,1.2-1.3
				S62.3,36.1,62.3,34.8z"/>
			<path class="st2" d="M64.5,39.8l1.1-0.7V27.2l-1.3-0.8h2.2L66,39.1l1.1,0.7H64.5z"/>
		</g>
		<g class="st1">
			<path class="st2" d="M31.2,75.8l1.8-1.2v-20l-1.6-1.1h3.1c1.8,0,3.2,0.8,4.2,2.5s1.4,4.1,1.4,7.3c0,2.2-0.3,4.2-0.8,6.1
				c-0.6,1.9-1.3,3.4-2.3,4.6c-0.5,0.6-1,1-1.6,1.4s-1.2,0.5-1.9,0.5H31.2z M33.5,75.2c1.8,0,3.1-1.1,3.9-3.2s1.2-5.5,1.2-10.3
				c0-2.9-0.3-4.9-0.8-6c-0.6-1.1-1.5-1.6-2.9-1.6L33.5,75.2z"/>
		</g>
		<g class="st1">
			<path class="st2" d="M46,70.9h-3.5c0,1.7,0.1,2.9,0.3,3.6s0.6,1,1.1,1c0.3,0,0.6-0.3,0.9-0.8c0.3-0.5,0.5-1.4,0.8-2.6v3.7
				l-0.3-1.3c-0.2,0.5-0.4,0.9-0.7,1.2c-0.2,0.2-0.5,0.4-0.8,0.4c-0.7,0-1.3-0.4-1.7-1.3s-0.6-2-0.6-3.5c0-1.5,0.2-2.7,0.7-3.6
				s1-1.4,1.6-1.4c0.6,0,1.1,0.4,1.5,1.2c0.4,0.8,0.7,1.8,0.7,2.9V70.9z M45,70.5v-0.6c0-1-0.1-1.8-0.3-2.4s-0.5-0.9-0.9-0.9
				c-0.4,0-0.7,0.3-0.9,1c-0.2,0.7-0.4,1.6-0.4,3H45z"/>
			<path class="st2" d="M50.7,66.1v3.6c-0.2-1.1-0.4-1.9-0.7-2.4s-0.6-0.8-1-0.8c-0.4,0-0.6,0.1-0.8,0.4s-0.3,0.6-0.3,1.1
				c0,1,0.6,2,1.9,3c0.1,0,0.1,0.1,0.1,0.1c0.4,0.3,0.7,0.6,0.9,1c0.2,0.4,0.3,0.9,0.3,1.4c0,0.8-0.2,1.4-0.6,1.8
				C50.2,75.7,49.7,76,49,76c-0.4,0-0.8-0.1-1.1-0.4s-0.6-0.8-0.9-1.4l-0.3,1.7v-4.3c0.2,1.3,0.6,2.3,0.9,3c0.4,0.7,0.8,1,1.3,1
				c0.4,0,0.7-0.2,0.8-0.5s0.3-0.8,0.3-1.6c0-0.7-0.1-1.3-0.3-1.7s-0.5-0.7-0.9-1c0,0,0,0-0.1,0C47.7,69.9,47,68.9,47,68
				c0-0.5,0.2-1,0.5-1.3s0.8-0.5,1.3-0.5c0.4,0,0.6,0.1,0.9,0.3c0.2,0.2,0.4,0.5,0.7,1L50.7,66.1z"/>
			<path class="st2" d="M51.9,75.8l1.3-0.7L53,66.9l-1.5-0.7h3.9l-1.5,0.7l-0.3,8.2l1.3,0.7H51.9z M52.2,64.7c0-0.2,0.1-0.3,0.3-0.4
				s0.5-0.2,0.9-0.2s0.6,0.1,0.9,0.2s0.4,0.2,0.4,0.4s-0.1,0.3-0.3,0.4s-0.5,0.2-0.9,0.2c-0.4,0-0.7-0.1-0.9-0.2
				C52.3,65,52.2,64.8,52.2,64.7z"/>
			<path class="st2" d="M61.7,66.2l-1.1,0.7V75c0,1.5-0.2,2.6-0.5,3.4s-0.9,1.1-1.6,1.1c-0.3,0-0.6-0.1-0.9-0.3s-0.5-0.4-0.7-0.7
				l-0.5,1v-3.2c0.3,1.1,0.7,1.8,1,2.2c0.3,0.4,0.7,0.6,1.2,0.6c0.5,0,0.9-0.3,1.1-0.9c0.2-0.6,0.3-1.6,0.3-3.2v-1
				c-0.2,0.6-0.4,1.1-0.7,1.4c-0.3,0.3-0.6,0.5-0.9,0.5c-0.7,0-1.2-0.4-1.6-1.3s-0.6-2.1-0.6-3.6c0-1.5,0.2-2.7,0.7-3.6
				c0.4-0.9,1-1.4,1.7-1.4c0.4,0,0.7,0.2,1,0.6s0.5,1,0.7,1.8l0.2-2.2H61.7z M58.3,66.5c-0.5,0-0.8,0.4-1,1.1
				c-0.2,0.7-0.3,1.9-0.3,3.5c0,1.6,0.1,2.7,0.3,3.4s0.5,1,1,1s0.8-0.4,1.2-1.3s0.5-2,0.5-3.4c0-1.2-0.2-2.2-0.5-3
				S58.7,66.5,58.3,66.5z"/>
			<path class="st2" d="M61.8,75.8l1.1-0.7v-8.2l-1.1-0.7h1.6l0.1,2.5c0.2-0.8,0.4-1.5,0.7-1.9s0.7-0.7,1.1-0.7
				c0.6,0,1.1,0.4,1.6,1.3c0.4,0.8,0.6,1.9,0.6,3.2c0,0.9-0.1,1.7-0.4,2.5s-0.6,1.4-1.2,2.1l1.5,0.7H65c0.5-0.7,0.9-1.4,1.2-2.3
				s0.4-1.9,0.4-3.1c0-1.3-0.1-2.3-0.3-2.9s-0.5-1-1-1c-0.4,0-0.8,0.5-1.2,1.4s-0.5,2-0.5,3.3c0,0.7,0,1.5,0.1,2.2s0.2,1.5,0.3,2.3
				H61.8z"/>
		</g>
	</g>
</g>
</svg>
